<svg xmlns="http://www.w3.org/2000/svg" viewBox="0 0 24 24" fill="none">
  <path
    d="M6 7.5C6 5.567 7.567 4 9.5 4h5C16.433 4 18 5.567 18 7.5v9c0 1.933-1.567 3.5-3.5 3.5h-5C7.567 20 6 18.433 6 16.5v-9Z"
    stroke="black"
    stroke-width="2"
    stroke-linejoin="round"
  />
  <path
    d="M9 9.5C9 8.672 9.672 8 10.5 8h3c.828 0 1.5.672 1.5 1.5S14.328 11 13.5 11h-3C9.672 11 9 10.328 9 9.5Z"
    fill="black"
  />
  <path
    d="M9 15.25c0-.69.56-1.25 1.25-1.25h4.5c.69 0 1.25.56 1.25 1.25s-.56 1.25-1.25 1.25h-4.5c-.69 0-1.25-.56-1.25-1.25Z"
    fill="black"
  />
</svg>
